<?xml version="1.0" standalone="no"?><!DOCTYPE svg PUBLIC "-//W3C//DTD SVG 1.1//EN" "http://www.w3.org/Graphics/SVG/1.1/DTD/svg11.dtd"><svg t="1701415685404" class="icon" viewBox="0 0 1024 1024" version="1.1" xmlns="http://www.w3.org/2000/svg" p-id="4733" xmlns:xlink="http://www.w3.org/1999/xlink" width="200" height="200"><path d="M229.888 879.616c-6.144 0-11.776-2.048-16.384-6.144-5.632-4.608-9.216-11.776-9.216-19.456v-324.096c0-8.704 4.608-16.384 11.776-21.504l373.76-242.176c4.096-2.56 9.216-4.096 13.824-4.096 5.632 0 10.752 1.536 15.36 5.12L809.472 414.72c6.144 4.608 9.728 12.288 9.728 19.968v321.024c0 12.288-8.704 23.04-20.992 25.088L234.496 879.616h-4.608z" fill="#FFDB8A" p-id="4734"></path><path d="M603.648 288.768L793.6 434.688v321.024L229.888 854.528v-324.096l373.76-241.664m0-50.688c-9.728 0-18.944 2.56-27.648 8.192l-373.76 242.176c-14.336 9.216-23.04 25.6-23.04 42.496V855.04c0 14.848 6.656 29.184 17.92 38.912 9.216 7.68 20.992 11.776 32.768 11.776 3.072 0 5.632 0 8.704-0.512l563.712-98.816c24.064-4.096 41.984-25.088 41.984-49.664V434.688c0-15.872-7.168-30.72-19.968-39.936l-189.44-146.432c-9.216-7.168-19.968-10.24-31.232-10.24z" fill="#262626" p-id="4735"></path><path d="M216.576 718.336s28.672-26.624 76.288-31.744c53.76-5.632 45.568 20.992 97.28 15.36 53.76-5.632 45.568-34.304 89.6-38.912 41.472-4.096 44.032 17.92 78.336 4.608 38.912-15.36 58.368-36.864 100.864-26.624 18.944 4.608 28.16 13.824 55.296 14.336 31.232 1.024 41.472-21.504 56.832-24.576 29.184-6.144 44.544-12.288 44.544-12.288V472.576l-599.04 93.696v152.064z" fill="#FFFFFF" p-id="4736"></path><path d="M191.488 775.68v-230.912l648.704-101.888v194.048l-16.384 6.144c-0.512 0.512-17.92 6.656-48.64 13.312-0.512 0.512-3.584 2.56-6.144 4.608-10.24 8.192-27.648 20.992-56.32 20.48-22.016-0.512-35.84-6.144-46.592-10.24-5.12-2.048-9.216-3.584-14.336-4.608-22.016-5.12-33.792 0.512-54.784 11.264-8.704 4.608-18.944 9.728-30.208 14.336-27.136 10.752-43.52 5.12-56.32 0.512-8.192-3.072-14.848-5.12-28.672-3.584-13.312 1.536-17.408 5.12-26.112 11.776-11.776 9.728-27.648 23.04-63.488 26.624-32.256 3.072-48.128-4.096-60.928-10.24-9.728-4.608-16.384-7.68-36.352-5.632-37.888 4.096-61.44 25.088-61.44 25.088l-41.984 38.912zM306.688 660.48c20.992 0 33.792 5.12 46.592 11.264 9.216 4.608 15.36 7.168 33.792 5.632 20.48-2.048 27.136-7.68 36.352-15.36 10.752-9.216 24.576-20.48 53.248-23.552 24.576-2.56 39.424 2.56 50.176 6.144 9.216 3.072 11.264 4.096 21.504 0 9.728-3.584 17.92-8.192 26.112-12.288 24.576-12.288 50.176-25.6 90.112-15.36 8.192 2.048 14.848 4.608 20.48 7.168 9.216 3.584 15.872 6.144 29.184 6.656 10.752 0.512 16.384-4.096 24.576-10.24 6.656-5.12 14.848-11.264 26.112-13.824 9.728-2.048 18.432-4.096 24.576-6.144V502.272L242.176 588.288v86.016c13.312-5.632 29.696-10.24 48.128-12.288 6.144-1.024 11.264-1.536 16.384-1.536z" fill="#262626" p-id="4737"></path><path d="M383.488 784.384c-28.672 0-49.664-21.504-49.664-51.712v-193.024l-86.016 15.36c-1.536 0.512-3.584 0.512-5.12 0.512-12.288 0-23.552-8.192-27.136-19.968-3.584-12.288 1.024-24.576 11.776-31.744L578.56 274.432c7.168-4.608 15.36-7.168 24.064-7.168 9.728 0 18.944 3.072 26.624 9.216l166.912 128.512c9.728 7.68 14.336 20.48 11.264 32.256-3.072 12.288-12.8 21.504-25.088 23.552l-144.384 26.112v55.296c0 16.896-6.656 32.256-18.944 42.496-10.24 9.216-24.064 14.336-37.888 14.336-28.16 0-49.664-20.48-49.664-47.104v-46.08l-91.136 15.36v202.752c1.536 37.888-28.16 60.416-56.832 60.416z" fill="#FFFFB6" p-id="4738"></path><path d="M603.136 292.864c4.096 0 8.192 1.536 11.264 4.096l166.912 128c4.096 3.072 2.56 9.728-2.56 10.752l-153.088 27.648c-7.168 1.024-11.776 7.168-11.776 14.336v64.512c0 20.992-16.384 31.232-31.744 31.232-12.8 0-24.064-7.168-24.064-22.016V493.056c0-8.192-6.656-14.336-14.336-14.336h-2.56l-112.64 18.944c-7.168 1.024-12.288 7.168-12.288 14.336v211.456c0 23.04-17.408 35.328-32.768 35.328-12.8 0-24.064-8.192-24.064-26.624v-205.824c0-8.192-6.656-14.336-14.336-14.336h-2.56l-98.304 17.408h-0.512c-2.56 0-4.096-3.584-1.536-5.12l351.232-229.376c2.56-1.024 6.144-2.048 9.728-2.048m0-50.688c-13.312 0-26.624 4.096-37.888 11.264L214.016 482.304c-19.968 12.8-28.672 37.376-22.016 59.904 6.656 23.04 27.136 38.4 51.2 38.4 3.072 0 6.144-0.512 9.216-1.024l56.32-9.728v162.816c0 44.032 32.256 76.8 74.752 76.8 40.96 0 83.456-32.256 83.456-86.016v-181.248l40.448-6.656v15.872c0 41.472 32.256 72.704 74.752 72.704 46.08 0 82.432-35.84 82.432-81.92v-34.304l123.392-22.528c22.016-4.096 39.936-20.48 45.056-42.496 5.12-22.016-2.56-44.544-20.48-58.368l-167.424-128c-11.776-9.216-27.136-14.336-41.984-14.336z" fill="#262626" p-id="4739"></path><path d="M591.872 244.736c-5.632 6.656 26.624-91.136 104.96-100.864" fill="#FF7171" p-id="4740"></path><path d="M590.848 270.336c-3.584 0-7.168-0.512-10.24-2.048-8.192-3.584-16.896-13.312-14.336-28.16 3.584-22.528 44.544-110.592 127.488-120.832 13.824-1.536 26.624 8.192 28.16 22.016 1.536 13.824-8.192 26.624-22.016 28.16-49.664 6.144-76.8 60.416-82.944 76.288 0 5.632-2.048 11.264-6.144 15.872-5.12 5.632-12.288 8.704-19.968 8.704z" fill="#262626" p-id="4741"></path><path d="M600.576 299.008m-88.576 0a88.576 88.576 0 1 0 177.152 0 88.576 88.576 0 1 0-177.152 0Z" fill="#FF7171" p-id="4742"></path><path d="M600.576 413.184C537.6 413.184 486.4 361.984 486.4 299.008s51.2-114.176 114.176-114.176 114.176 51.2 114.176 114.176-51.2 114.176-114.176 114.176z m0-177.664c-34.816 0-63.488 28.672-63.488 63.488s28.672 63.488 63.488 63.488 63.488-28.672 63.488-63.488S635.904 235.52 600.576 235.52z" fill="#262626" p-id="4743"></path><path d="M617.984 278.016m-17.408 0a17.408 17.408 0 1 0 34.816 0 17.408 17.408 0 1 0-34.816 0Z" fill="#FFFFFF" p-id="4744"></path></svg>